<svg width="25" height="24" viewBox="0 0 25 24" fill="none" xmlns="http://www.w3.org/2000/svg">
<path d="M22.9275 4C22.9275 2.9 22.0375 2 20.9375 2H4.9375C3.8375 2 2.9375 2.9 2.9375 4V16C2.9375 17.1 3.8375 18 4.9375 18H18.9375L22.9375 22L22.9275 4ZM17.9375 14H7.9375C7.3875 14 6.9375 13.55 6.9375 13C6.9375 12.45 7.3875 12 7.9375 12H17.9375C18.4875 12 18.9375 12.45 18.9375 13C18.9375 13.55 18.4875 14 17.9375 14ZM17.9375 11H7.9375C7.3875 11 6.9375 10.55 6.9375 10C6.9375 9.45 7.3875 9 7.9375 9H17.9375C18.4875 9 18.9375 9.45 18.9375 10C18.9375 10.55 18.4875 11 17.9375 11ZM17.9375 8H7.9375C7.3875 8 6.9375 7.55 6.9375 7C6.9375 6.45 7.3875 6 7.9375 6H17.9375C18.4875 6 18.9375 6.45 18.9375 7C18.9375 7.55 18.4875 8 17.9375 8Z" fill="black"/>
</svg>
