<svg width="25" height="24" viewBox="0 0 25 24" fill="none" xmlns="http://www.w3.org/2000/svg">
<g clip-path="url(#clip0_395_3422)">
<path fill-rule="evenodd" clip-rule="evenodd" d="M9.8835 3.21201C10.1795 2.52201 10.9435 1.89601 11.9075 2.08201C13.3815 2.36501 14.9465 3.48301 15.0565 5.29601L15.0625 5.50001V8.00001H17.4675C18.0369 7.99998 18.5997 8.12151 19.1184 8.35648C19.637 8.59144 20.0995 8.93443 20.475 9.36251C20.8504 9.79058 21.1301 10.2939 21.2954 10.8387C21.4607 11.3836 21.5078 11.9575 21.4335 12.522L21.4035 12.716L20.4935 17.716C20.3322 18.604 19.8752 19.4114 19.197 20.0069C18.5187 20.6024 17.659 20.951 16.7575 20.996L16.5585 21H6.0625C5.29729 21 4.56099 20.7077 4.00424 20.1827C3.44749 19.6578 3.11239 18.9399 3.0675 18.176L3.0625 18V12C3.06246 11.2348 3.35483 10.4985 3.87978 9.94175C4.40474 9.385 5.12261 9.0499 5.8865 9.00501L6.0625 9.00001H7.4025L9.8835 3.21201ZM7.0625 11H6.0625C5.79728 11 5.54293 11.1054 5.35539 11.2929C5.16786 11.4804 5.0625 11.7348 5.0625 12V18C5.0625 18.2652 5.16786 18.5196 5.35539 18.7071C5.54293 18.8946 5.79728 19 6.0625 19H7.0625V11ZM11.6875 4.08001L9.1435 10.017C9.10795 10.0997 9.08373 10.1868 9.0715 10.276L9.0625 10.41V19H16.5585C16.9994 19 17.428 18.8544 17.7776 18.5856C18.1272 18.3169 18.3782 17.9401 18.4915 17.514L18.5265 17.358L19.4365 12.358C19.4868 12.082 19.4784 11.7985 19.412 11.5259C19.3456 11.2534 19.2225 10.9978 19.0509 10.7759C18.8792 10.554 18.6628 10.3707 18.4157 10.2379C18.1686 10.1051 17.8963 10.0257 17.6165 10.005L17.4675 10H15.0625C14.5579 10.0002 14.0719 9.8096 13.702 9.46651C13.332 9.12342 13.1053 8.65316 13.0675 8.15001L13.0625 8.00001V5.50001C13.0625 4.94701 12.6285 4.38401 11.8575 4.13001L11.6875 4.08001Z" fill="black"/>
</g>
<defs>
<clipPath id="clip0_395_3422">
<rect width="24" height="24" fill="white" transform="translate(0.0625)"/>
</clipPath>
</defs>
</svg>
