<svg width="430" height="300" viewBox="0 0 430 300" fill="none" xmlns="http://www.w3.org/2000/svg">
<path d="M-1 3.05176e-05L429.817 0V139.933L429.961 280C429.5 291 423.764 298.429 412.665 300H19.1788C8.03436 300 -1 290.986 -1 279.866V3.05176e-05Z" fill="#2E8B57"/>
<path d="M192.99 299.996C80.6008 216.36 85.1826 65.8215 101.522 1.00674H409.134V272.218C409.638 297.483 401.062 297.483 391.982 300L192.99 299.996Z" fill="#38A96A"/>
<path d="M377.626 299.996C265.237 216.36 269.819 65.8215 286.158 1.00674H429.817V136.613L429.953 272.218C431 294 423 298 412.665 300L377.626 299.996Z" fill="#3DBA75"/>
</svg>
