<svg width="25" height="24" viewBox="0 0 25 24" fill="none" xmlns="http://www.w3.org/2000/svg">
<path d="M12.9773 2C7.5173 2 3.0673 6.45 3.0673 11.91C3.0673 13.66 3.5273 15.36 4.3873 16.86L2.9873 22L8.2373 20.62C9.6873 21.41 11.3173 21.83 12.9773 21.83C18.4373 21.83 22.8873 17.38 22.8873 11.92C22.8873 9.27 21.8573 6.78 19.9873 4.91C19.0705 3.98392 17.9785 3.24967 16.7749 2.75005C15.5714 2.25043 14.2804 1.99546 12.9773 2ZM12.9873 3.67C15.1873 3.67 17.2473 4.53 18.8073 6.09C19.5729 6.85535 20.1799 7.76432 20.5935 8.76476C21.007 9.7652 21.219 10.8374 21.2173 11.92C21.2173 16.46 17.5173 20.15 12.9773 20.15C11.4973 20.15 10.0473 19.76 8.7873 19L8.4873 18.83L5.3673 19.65L6.1973 16.61L5.9973 16.29C5.17125 14.9787 4.73432 13.4598 4.7373 11.91C4.7473 7.37 8.4373 3.67 12.9873 3.67ZM9.4673 7.33C9.3073 7.33 9.0373 7.39 8.8073 7.64C8.5873 7.89 7.9373 8.5 7.9373 9.71C7.9373 10.93 8.8273 12.1 8.9373 12.27C9.0773 12.44 10.6973 14.94 13.1873 16C13.7773 16.27 14.2373 16.42 14.5973 16.53C15.1873 16.72 15.7273 16.69 16.1573 16.63C16.6373 16.56 17.6173 16.03 17.8273 15.45C18.0373 14.87 18.0373 14.38 17.9773 14.27C17.9073 14.17 17.7473 14.11 17.4973 14C17.2473 13.86 16.0273 13.26 15.8073 13.18C15.5773 13.1 15.4373 13.06 15.2473 13.3C15.0873 13.55 14.6073 14.11 14.4673 14.27C14.3173 14.44 14.1773 14.46 13.9373 14.34C13.6773 14.21 12.8773 13.95 11.9373 13.11C11.1973 12.45 10.7073 11.64 10.5573 11.39C10.4373 11.15 10.5473 11 10.6673 10.89C10.7773 10.78 10.9373 10.6 11.0373 10.45C11.1673 10.31 11.2073 10.2 11.2873 10.04C11.3673 9.87 11.3273 9.73 11.2673 9.61C11.2073 9.5 10.7073 8.26 10.4973 7.77C10.2973 7.29 10.0973 7.35 9.9373 7.34C9.7973 7.34 9.6373 7.33 9.4673 7.33Z" fill="black"/>
</svg>
